<svg width="360" height="109" viewBox="0 0 360 109" fill="none" xmlns="http://www.w3.org/2000/svg">
<g clip-path="url(#clip0_38_374)">
<g clip-path="url(#clip1_38_374)">
<g clip-path="url(#clip2_38_374)">
<g clip-path="url(#clip3_38_374)">
<g clip-path="url(#clip4_38_374)">
<g clip-path="url(#clip5_38_374)">
<path d="M36.5808 68.2325L39.6858 108.134H32.2684L31.2335 91.4457C30.8885 85.4788 30.716 80.7438 30.716 77.2406V75.1618L23.4711 103.803H16.2838L8.57892 75.1041C8.65558 77.6448 8.69392 79.5696 8.69392 80.8785C8.69392 84.3816 8.57892 87.981 8.34892 91.6767L7.37144 108.134H0.0115967L3.17403 68.2325H12.9488L20.0212 96.1807L26.691 68.2325H36.5808ZM62.2253 67.3663C65.7902 67.3663 68.876 68.1748 71.4826 69.7916C74.0892 71.4084 76.0902 73.7759 77.4855 76.8941C78.8885 80.0123 79.59 83.7657 79.59 88.1543C79.59 92.5043 78.8808 96.2385 77.4625 99.3567C76.0442 102.475 74.0317 104.862 71.4251 106.517C68.8185 108.172 65.7519 109 62.2253 109C58.6604 109 55.5746 108.192 52.968 106.575C50.3614 104.958 48.3489 102.59 46.9306 99.4722C45.5123 96.354 44.8032 92.6006 44.8032 88.212C44.8032 83.9004 45.5123 80.174 46.9306 77.0327C48.3489 73.8991 50.3691 71.5047 52.991 69.8493C55.6206 68.194 58.6987 67.3663 62.2253 67.3663ZM62.2253 73.1985C59.1587 73.1985 56.8204 74.3996 55.2105 76.8017C53.6005 79.2116 52.7955 83.015 52.7955 88.212C52.7955 98.1825 55.9388 103.168 62.2253 103.168C65.2919 103.168 67.6187 101.974 69.2057 99.5876C70.8003 97.2009 71.5976 93.3898 71.5976 88.1543C71.5976 82.9573 70.8003 79.1654 69.2057 76.7787C67.6187 74.3919 65.2919 73.1985 62.2253 73.1985ZM116.044 68.2325V108.134H106.212L92.5847 75.8547C92.9297 78.7035 93.1865 81.2827 93.3552 83.5925C93.5315 85.9022 93.6197 88.6547 93.6197 91.8499V108.134H86.7198V68.2325H96.3221L110.179 100.569C109.949 99.0294 109.719 96.9968 109.489 94.4715C109.259 91.9538 109.144 89.4439 109.144 86.9416V68.2325H116.044ZM125.348 68.2325H148.405L147.6 73.8914H132.937V85.0361H145.702V90.695H132.937V102.417H148.635V108.134H125.348V68.2325ZM176.234 68.2325H184.284L171.519 93.0048V108.134H163.814V93.0625L151.049 68.2325H159.444L167.839 86.7684L176.234 68.2325ZM214.643 67.3663C217.441 67.3663 219.872 67.7705 221.934 68.579C224.012 69.3874 225.951 70.6193 227.753 72.2746L224.015 76.6054C222.597 75.412 221.167 74.5459 219.726 74.0069C218.292 73.468 216.751 73.1985 215.103 73.1985C213.263 73.1985 211.776 73.6104 210.641 74.4342C209.514 75.2657 208.951 76.4322 208.951 77.9335C208.951 78.9344 209.169 79.7621 209.606 80.4165C210.043 81.071 210.837 81.6869 211.987 82.2644C213.137 82.8418 214.846 83.477 217.116 84.1699C221.026 85.4018 223.966 86.9301 225.936 88.7548C227.914 90.5872 228.903 93.255 228.903 96.7582C228.903 99.1449 228.297 101.262 227.086 103.11C225.882 104.958 224.15 106.401 221.888 107.441C219.619 108.48 216.935 109 213.838 109C210.802 109 208.088 108.507 205.696 107.522C203.297 106.544 201.234 105.208 199.509 103.514L203.431 99.1257C204.964 100.435 206.555 101.424 208.203 102.094C209.852 102.771 211.672 103.11 213.666 103.11C215.851 103.11 217.614 102.59 218.956 101.551C220.297 100.512 220.968 99.0487 220.968 97.1624C220.968 96.0075 220.738 95.0528 220.278 94.2983C219.818 93.5514 219.028 92.8778 217.909 92.2772C216.805 91.6844 215.199 91.0607 213.091 90.4063C208.874 89.0974 205.823 87.5191 203.937 85.6713C202.066 83.8235 201.131 81.3982 201.131 78.3955C201.131 76.2012 201.706 74.2764 202.856 72.6211C204.006 70.9657 205.604 69.6761 207.651 68.7522C209.698 67.8283 212.029 67.3663 214.643 67.3663ZM235.389 68.2325H258.446L257.641 73.8914H242.979V85.0361H255.743V90.695H242.979V102.417H258.676V108.134H235.389V68.2325ZM295.188 68.2325V108.134H285.355L271.728 75.8547C272.073 78.7035 272.33 81.2827 272.498 83.5925C272.675 85.9022 272.763 88.6547 272.763 91.8499V108.134H265.863V68.2325H275.465L289.323 100.569C289.093 99.0294 288.863 96.9968 288.633 94.4715C288.403 91.9538 288.288 89.4439 288.288 86.9416V68.2325H295.188ZM315.945 67.3663C318.743 67.3663 321.177 67.7705 323.247 68.579C325.317 69.3874 327.253 70.6193 329.054 72.2746L325.317 76.6054C323.899 75.412 322.469 74.5459 321.027 74.0069C319.594 73.468 318.053 73.1985 316.405 73.1985C314.565 73.1985 313.077 73.6104 311.943 74.4342C310.816 75.2657 310.252 76.4322 310.252 77.9335C310.252 78.9344 310.471 79.7621 310.908 80.4165C311.352 81.071 312.15 81.6869 313.3 82.2644C314.45 82.8418 316.155 83.477 318.417 84.1699C322.327 85.4018 325.267 86.9301 327.237 88.7548C329.215 90.5872 330.204 93.255 330.204 96.7582C330.204 99.1449 329.599 101.262 328.387 103.11C327.184 104.958 325.451 106.401 323.189 107.441C320.928 108.48 318.245 109 315.14 109C312.111 109 309.397 108.507 306.998 107.522C304.606 106.544 302.547 105.208 300.822 103.514L304.732 99.1257C306.266 100.435 307.856 101.424 309.505 102.094C311.153 102.771 312.974 103.11 314.967 103.11C317.152 103.11 318.915 102.59 320.257 101.551C321.599 100.512 322.269 99.0487 322.269 97.1624C322.269 96.0075 322.039 95.0528 321.579 94.2983C321.119 93.5514 320.334 92.8778 319.222 92.2772C318.11 91.6844 316.5 91.0607 314.392 90.4063C310.176 89.0974 307.128 87.5191 305.25 85.6713C303.372 83.8235 302.432 81.3982 302.432 78.3955C302.432 76.2012 303.007 74.2764 304.157 72.6211C305.307 70.9657 306.906 69.6761 308.953 68.7522C311.007 67.8283 313.338 67.3663 315.945 67.3663ZM336.702 68.2325H359.759L358.954 73.8914H344.292V85.0361H357.056V90.695H344.292V102.417H359.989V108.134H336.702V68.2325Z" fill="#808080" fill-opacity="0.25"/>
</g>
</g>
</g>
</g>
<g clip-path="url(#clip6_38_374)">
<path d="M197.86 42.7924C195.443 38.0812 196.934 35.511 198.823 32.2567C199.398 31.2676 199.991 30.244 200.516 29.0835C200.533 29.049 200.549 28.996 200.563 28.946C201.416 27.0461 201.849 25.0645 201.849 23.0559C201.849 10.611 194.818 2.87683 183.504 2.87683C176.807 2.87683 168.531 4.95452 165.26 10.7641C165.224 10.8078 165.19 10.8544 165.163 10.9045C165.086 11.0385 165.02 11.1761 164.951 11.3101L164.879 11.454C163.606 13.9592 162.584 19.4874 162.518 20.3015C162.479 20.7791 162.602 21.3061 162.733 21.8677C162.853 22.3827 163.003 23.0219 162.92 23.3338C162.881 23.4431 162.627 23.7457 162.423 23.992C161.934 24.5726 161.196 25.4552 160.453 26.8464C160.119 27.4702 159.736 28.0133 159.365 28.5375C158.555 29.679 157.719 30.8585 158.404 32.1319C159.097 33.4167 160.981 33.6882 162.438 33.6882C162.547 33.6882 162.651 33.6854 162.745 33.6819C162.957 34.3154 163.155 35.301 162.638 35.6975C162.507 35.8005 162.41 35.9408 162.361 36.0968C162.053 37.1014 162.306 37.7435 162.572 38.106C162.734 38.3275 162.935 38.4926 163.151 38.6175C162.739 39.0795 162.405 39.6192 162.405 40.1492C162.405 41.0352 163.253 41.3068 163.815 41.4846C164.763 41.7867 164.93 41.9432 164.869 42.4737L164.839 42.7171C164.736 43.5283 164.706 44.049 165.305 45.3132C165.852 46.4674 167.161 47.0514 169.197 47.0514C171.348 47.0514 173.74 46.4052 174.669 46.1279L175.151 45.9812C176.046 45.7061 176.889 45.4478 177.691 45.4478C179.264 45.4478 181.352 46.4271 183.551 54.0836C183.618 54.3143 183.787 54.5042 184.008 54.5986C184.107 54.6389 184.211 54.6607 184.315 54.6607C184.445 54.6607 184.576 54.6262 184.694 54.5641C188.419 52.533 192.516 52.106 195.297 52.106C198.178 52.106 200.221 52.552 200.243 52.5583C200.519 52.6176 200.799 52.5301 200.992 52.3276C201.182 52.1245 201.256 51.8345 201.181 51.5663C201.125 51.3632 199.811 46.5957 197.86 42.7924ZM195.297 50.5082C192.544 50.5082 188.575 50.9041 184.805 52.7136C182.902 46.5145 180.751 43.8505 177.691 43.8505C176.652 43.8505 175.651 44.1561 174.685 44.4558L174.216 44.5962C173.355 44.8552 171.139 45.4541 169.197 45.4541C168.426 45.4541 167.082 45.3448 166.741 44.6267C166.315 43.7257 166.343 43.507 166.416 42.9202L166.449 42.6584C166.672 40.7211 165.067 40.209 164.295 39.9622C164.25 39.9501 164.197 39.9311 164.144 39.9155C164.382 39.6002 164.86 39.148 165.328 38.8108C165.62 38.602 165.669 38.2216 165.542 37.8845C165.425 37.5697 165.07 37.3695 164.734 37.3695C164.251 37.354 163.933 37.2665 163.851 37.1543C163.803 37.0887 163.797 36.9489 163.83 36.7705C165.018 35.5945 164.505 33.5668 163.983 32.5024C163.837 32.2026 163.532 32.0409 163.193 32.0594C163.176 32.0594 162.872 32.0904 162.439 32.0904C161.073 32.0904 160.04 31.8068 159.804 31.3701C159.61 31.011 159.917 30.5122 160.662 29.4638C161.043 28.9241 161.475 28.316 161.855 27.6013C162.521 26.3562 163.168 25.5829 163.64 25.0179C164.047 24.5311 164.341 24.1819 164.455 23.7509C164.643 23.0426 164.451 22.2256 164.281 21.5018C164.189 21.1053 164.084 20.6594 164.103 20.4316C164.161 19.7204 165.161 14.4131 166.253 12.248C166.276 12.2169 166.358 12.0575 166.376 12.0201C166.409 11.9511 166.443 11.8861 166.478 11.817C166.515 11.7733 166.547 11.7267 166.574 11.6766C169.456 6.36016 177.496 4.47293 183.504 4.47293C193.996 4.47293 200.258 11.4206 200.258 23.0547C200.258 24.8614 199.862 26.6428 199.053 28.4305C199.045 28.4489 199.037 28.4771 199.031 28.5053C198.55 29.5507 197.991 30.5179 197.448 31.4506C195.485 34.8361 193.63 38.0306 196.447 43.5214C197.744 46.0514 198.773 49.1152 199.287 50.7746C198.35 50.6452 196.962 50.5082 195.297 50.5082ZM182.426 8.55522C174.93 8.55522 169.058 12.5581 169.058 17.6686C169.058 19.8182 169.777 21.9488 171.031 23.515C173.163 26.1825 176.662 27.0501 180.493 25.7987C183.352 24.8597 185.827 25.2279 187.312 26.8033C188.424 27.9828 188.973 29.7832 188.86 31.8701C188.813 32.7464 189.475 33.4955 190.345 33.5519C190.379 33.5553 190.415 33.5553 190.45 33.5553C191.275 33.5553 191.971 32.9155 192.035 32.0795C192.309 28.4328 193.059 26.3108 193.788 24.2578C194.49 22.2768 195.151 20.408 195.151 17.6652C195.151 12.4707 189.68 8.55522 182.426 8.55522ZM190.112 25.1779C189.958 24.9816 189.795 24.7912 189.624 24.6071C188.067 22.9563 185.936 22.0864 183.46 22.0864C182.206 22.0864 180.875 22.3142 179.507 22.7601C178.878 22.9661 178.282 23.0938 177.716 23.1502C177.821 22.9696 177.924 22.801 178.03 22.6168C179.232 20.5138 180.388 18.5144 182.249 18.664C182.696 18.683 183.069 18.3642 183.098 17.9247C183.131 17.4845 182.799 17.1007 182.362 17.0696C179.48 16.8763 177.98 19.4972 176.651 21.8211C176.405 22.2486 176.169 22.66 175.93 23.0472C174.97 22.8223 174.15 22.3142 173.512 21.515C173.343 21.3061 173.199 21.0691 173.062 20.8286C174.802 20.3073 176.48 19.0973 176.804 18.0645C177.008 17.4154 176.75 16.7917 176.148 16.4764C175.765 16.2802 175.312 16.4269 175.104 16.8073C174.936 17.107 174.997 17.4782 175.215 17.7279C174.895 18.202 173.684 19.0133 172.473 19.3441C172.331 18.8015 172.239 18.2428 172.239 17.6686C172.239 15.7687 173.878 14.0524 176.352 12.9603C178.909 14.6513 182.889 15.2158 183.982 15.2158C184.42 15.2158 184.778 14.8602 184.778 14.4172C184.778 13.977 184.42 13.6185 183.982 13.6185C182.975 13.6185 180.41 13.1853 178.386 12.2555C179.633 11.9338 181 11.7497 182.425 11.7497C184.793 11.7497 186.933 12.2583 188.586 13.1162C187.666 14.389 186.61 15.7025 186.596 15.7215C186.319 16.065 186.372 16.5673 186.714 16.8447C186.861 16.9632 187.038 17.0225 187.213 17.0225C187.445 17.0225 187.676 16.9195 187.832 16.7261C187.894 16.6479 188.98 15.2975 189.928 13.9741C191.207 14.9816 191.969 16.2578 191.969 17.6652C191.969 18.408 191.894 19.0535 191.789 19.6715C191.746 19.6525 191.699 19.637 191.656 19.6186C189.868 18.8729 188.18 18.168 186.755 19.1784C186.396 19.4344 186.312 19.9304 186.565 20.2923C186.818 20.6514 187.316 20.7354 187.674 20.4828C188.381 19.9805 189.615 20.4983 191.044 21.0944C191.168 21.1445 191.302 21.1911 191.426 21.244C191.243 21.874 191.032 22.5041 190.789 23.1876C190.567 23.8142 190.336 24.4661 190.112 25.1779Z" fill="#002244" fill-opacity="0.25"/>
</g>
</g>
</g>
<defs>
<clipPath id="clip0_38_374">
<rect width="360" height="109" fill="white"/>
</clipPath>
<clipPath id="clip1_38_374">
<rect width="360" height="109" fill="white"/>
</clipPath>
<clipPath id="clip2_38_374">
<rect width="360" height="41.6336" fill="white" transform="translate(0 67.3663)"/>
</clipPath>
<clipPath id="clip3_38_374">
<rect width="360" height="41.6336" fill="white" transform="translate(0 67.3663)"/>
</clipPath>
<clipPath id="clip4_38_374">
<rect width="360" height="41.6336" fill="white" transform="translate(0 67.3663)"/>
</clipPath>
<clipPath id="clip5_38_374">
<rect width="360" height="41.6336" fill="white" transform="translate(0 67.3663)"/>
</clipPath>
<clipPath id="clip6_38_374">
<rect width="57.2931" height="57.5377" fill="white" transform="translate(151.354)"/>
</clipPath>
</defs>
</svg>
