<svg width="550" height="169" viewBox="0 0 550 169" fill="none" xmlns="http://www.w3.org/2000/svg">
<g clip-path="url(#clip0_7_70)">
<g clip-path="url(#clip1_7_70)">
<g clip-path="url(#clip2_7_70)">
<g clip-path="url(#clip3_7_70)">
<g clip-path="url(#clip4_7_70)">
<g clip-path="url(#clip5_7_70)">
<path d="M55.8874 105.792L60.631 167.657H49.299L47.7177 141.783C47.1907 132.531 46.9271 125.19 46.9271 119.758V116.535L35.8586 160.942H24.8779L13.1067 116.446C13.2238 120.385 13.2823 123.369 13.2823 125.399C13.2823 130.83 13.1067 136.411 12.7553 142.141L11.2619 167.657H0.0176926L4.84919 105.792H19.7829L30.5879 149.124L40.778 105.792H55.8874ZM95.0664 104.449C100.513 104.449 105.227 105.702 109.21 108.209C113.192 110.716 116.249 114.387 118.381 119.221C120.524 124.056 121.596 129.875 121.596 136.68C121.596 143.424 120.512 149.214 118.345 154.048C116.179 158.883 113.104 162.584 109.122 165.15C105.139 167.717 100.454 169 95.0664 169C89.62 169 84.9056 167.747 80.9233 165.24C76.941 162.733 73.8664 159.062 71.6995 154.227C69.5327 149.393 68.4493 143.573 68.4493 136.769C68.4493 130.084 69.5327 124.307 71.6995 119.436C73.8664 114.578 76.9527 110.865 80.9584 108.299C84.9759 105.732 89.6786 104.449 95.0664 104.449ZM95.0664 113.491C90.3813 113.491 86.8089 115.354 84.3493 119.078C81.8896 122.814 80.6598 128.711 80.6598 136.769C80.6598 152.228 85.462 159.957 95.0664 159.957C99.7515 159.957 103.306 158.107 105.731 154.407C108.167 150.706 109.385 144.797 109.385 136.68C109.385 128.622 108.167 122.743 105.731 119.042C103.306 115.342 99.7515 113.491 95.0664 113.491ZM177.29 105.792V167.657H162.268L141.449 117.61C141.976 122.026 142.368 126.026 142.626 129.607C142.895 133.188 143.03 137.456 143.03 142.41V167.657H132.489V105.792H147.159L168.329 155.929C167.978 153.541 167.627 150.39 167.275 146.474C166.924 142.571 166.748 138.679 166.748 134.799V105.792H177.29ZM191.503 105.792H226.729L225.499 114.566H203.099V131.845H222.6V140.619H203.099V158.794H227.08V167.657H191.503V105.792ZM269.246 105.792H281.545L262.043 144.2V167.657H250.272V144.29L230.77 105.792H243.595L256.421 134.531L269.246 105.792ZM327.927 104.449C332.202 104.449 335.915 105.075 339.066 106.329C342.24 107.582 345.203 109.492 347.956 112.059L342.246 118.774C340.079 116.923 337.895 115.58 335.693 114.745C333.502 113.909 331.148 113.491 328.63 113.491C325.819 113.491 323.546 114.13 321.813 115.407C320.091 116.696 319.23 118.505 319.23 120.833C319.23 122.385 319.564 123.668 320.232 124.683C320.899 125.697 322.112 126.652 323.869 127.548C325.625 128.443 328.237 129.428 331.704 130.502C337.678 132.412 342.17 134.782 345.18 137.611C348.202 140.452 349.713 144.588 349.713 150.02C349.713 153.72 348.787 157.003 346.937 159.868C345.098 162.733 342.451 164.971 338.996 166.583C335.529 168.194 331.429 169 326.697 169C322.059 169 317.913 168.236 314.258 166.708C310.592 165.192 307.441 163.121 304.806 160.495L310.797 153.69C313.14 155.72 315.57 157.254 318.088 158.292C320.607 159.343 323.388 159.868 326.434 159.868C329.772 159.868 332.466 159.062 334.515 157.451C336.565 155.839 337.59 153.571 337.59 150.646C337.59 148.856 337.239 147.375 336.536 146.206C335.833 145.048 334.627 144.003 332.917 143.072C331.23 142.153 328.776 141.186 325.555 140.171C319.113 138.142 314.451 135.695 311.57 132.83C308.712 129.965 307.283 126.205 307.283 121.549C307.283 118.147 308.162 115.163 309.919 112.596C311.676 110.029 314.118 108.03 317.245 106.597C320.372 105.165 323.933 104.449 327.927 104.449ZM359.622 105.792H394.848L393.618 114.566H371.217V131.845H390.719V140.619H371.217V158.794H395.199V167.657H359.622V105.792ZM450.981 105.792V167.657H435.959L415.14 117.61C415.667 122.026 416.059 126.026 416.317 129.607C416.586 133.188 416.721 137.456 416.721 142.41V167.657H406.18V105.792H420.85L442.021 155.929C441.669 153.541 441.318 150.39 440.966 146.474C440.615 142.571 440.439 138.679 440.439 134.799V105.792H450.981ZM482.693 104.449C486.968 104.449 490.687 105.075 493.849 106.329C497.012 107.582 499.969 109.492 502.722 112.059L497.012 118.774C494.845 116.923 492.661 115.58 490.459 114.745C488.268 113.909 485.914 113.491 483.396 113.491C480.585 113.491 478.312 114.13 476.579 115.407C474.857 116.696 473.996 118.505 473.996 120.833C473.996 122.385 474.33 123.668 474.998 124.683C475.677 125.697 476.895 126.652 478.652 127.548C480.409 128.443 483.015 129.428 486.47 130.502C492.444 132.412 496.936 134.782 499.946 137.611C502.968 140.452 504.479 144.588 504.479 150.02C504.479 153.72 503.553 157.003 501.703 159.868C499.864 162.733 497.217 164.971 493.762 166.583C490.306 168.194 486.207 169 481.463 169C476.837 169 472.69 168.236 469.024 166.708C465.37 165.192 462.225 163.121 459.59 160.495L465.563 153.69C467.906 155.72 470.336 157.254 472.854 158.292C475.373 159.343 478.154 159.868 481.2 159.868C484.538 159.868 487.232 159.062 489.281 157.451C491.331 155.839 492.356 153.571 492.356 150.646C492.356 148.856 492.005 147.375 491.302 146.206C490.599 145.048 489.399 144.003 487.7 143.072C486.002 142.153 483.542 141.186 480.321 140.171C473.879 138.142 469.223 135.695 466.354 132.83C463.484 129.965 462.049 126.205 462.049 121.549C462.049 118.147 462.928 115.163 464.685 112.596C466.442 110.029 468.884 108.03 472.011 106.597C475.15 105.165 478.711 104.449 482.693 104.449ZM514.405 105.792H549.631L548.401 114.566H526.001V131.845H545.502V140.619H526.001V158.794H549.983V167.657H514.405V105.792Z" fill="#808080"/>
</g>
</g>
</g>
</g>
<g clip-path="url(#clip6_7_70)">
<path d="M302.286 66.348C298.593 59.0435 300.872 55.0585 303.757 50.0128C304.636 48.4793 305.542 46.8922 306.344 45.0929C306.37 45.0393 306.395 44.9573 306.416 44.8796C307.718 41.9339 308.38 38.8616 308.38 35.7472C308.38 16.4521 297.639 4.46049 280.353 4.46049C270.121 4.46049 257.478 7.68185 252.48 16.6894C252.425 16.7572 252.374 16.8294 252.332 16.907C252.215 17.1149 252.113 17.3281 252.009 17.536L251.899 17.759C249.953 21.6432 248.392 30.2145 248.292 31.4768C248.231 32.2172 248.419 33.0344 248.62 33.9051C248.803 34.7035 249.032 35.6946 248.905 36.1781C248.846 36.3476 248.458 36.8169 248.145 37.1987C247.399 38.0988 246.271 39.4673 245.136 41.6244C244.627 42.5914 244.041 43.4336 243.474 44.2463C242.237 46.0162 240.959 47.845 242.006 49.8192C243.065 51.8112 245.943 52.2323 248.169 52.2323C248.336 52.2323 248.495 52.2279 248.638 52.2225C248.962 53.2047 249.265 54.7329 248.475 55.3475C248.274 55.5072 248.126 55.7249 248.051 55.9666C247.581 57.5242 247.967 58.5198 248.374 59.0818C248.622 59.4253 248.928 59.6813 249.258 59.8749C248.629 60.5913 248.119 61.4281 248.119 62.2497C248.119 63.6235 249.415 64.0446 250.272 64.3202C251.721 64.7886 251.977 65.0312 251.884 65.8538L251.837 66.2311C251.68 67.489 251.634 68.2963 252.549 70.2563C253.385 72.0458 255.385 72.9513 258.495 72.9513C261.781 72.9513 265.436 71.9495 266.856 71.5195L267.591 71.292C268.959 70.8656 270.247 70.465 271.472 70.465C273.876 70.465 277.065 71.9834 280.425 83.8545C280.528 84.2122 280.786 84.5066 281.124 84.6529C281.274 84.7154 281.433 84.7493 281.592 84.7493C281.791 84.7493 281.991 84.6957 282.171 84.5994C287.862 81.4503 294.122 80.7884 298.37 80.7884C302.772 80.7884 305.893 81.4797 305.926 81.4896C306.348 81.5814 306.776 81.4458 307.07 81.1318C307.362 80.8169 307.474 80.3673 307.36 79.9516C307.274 79.6367 305.266 72.2447 302.286 66.348ZM298.37 78.311C294.165 78.311 288.1 78.9248 282.34 81.7304C279.433 72.119 276.147 67.9885 271.472 67.9885C269.885 67.9885 268.355 68.4622 266.88 68.927L266.163 69.1447C264.847 69.5462 261.462 70.4748 258.495 70.4748C257.318 70.4748 255.264 70.3053 254.744 69.192C254.092 67.795 254.135 67.456 254.247 66.546L254.297 66.1401C254.638 63.1364 252.185 62.3425 251.007 61.9598C250.937 61.941 250.856 61.9116 250.776 61.8875C251.139 61.3986 251.869 60.6974 252.584 60.1747C253.031 59.8508 253.105 59.2612 252.911 58.7384C252.732 58.2504 252.19 57.94 251.676 57.94C250.939 57.9159 250.454 57.7803 250.328 57.6063C250.255 57.5046 250.245 57.2878 250.296 57.0113C252.111 55.1878 251.327 52.0441 250.529 50.3937C250.307 49.9289 249.84 49.6782 249.322 49.7068C249.297 49.7068 248.832 49.755 248.17 49.755C246.084 49.755 244.505 49.3152 244.144 48.6381C243.849 48.0814 244.318 47.3079 245.456 45.6825C246.039 44.8457 246.698 43.9028 247.279 42.7948C248.296 40.8643 249.284 39.6653 250.005 38.7893C250.627 38.0346 251.077 37.4931 251.251 36.8249C251.537 35.7267 251.244 34.4599 250.985 33.3377C250.844 32.723 250.684 32.0317 250.714 31.6784C250.801 30.5758 252.329 22.347 253.998 18.9901C254.033 18.9419 254.158 18.6948 254.185 18.6368C254.236 18.5298 254.287 18.429 254.342 18.3219C254.398 18.2541 254.447 18.1818 254.488 18.1042C258.891 9.86125 271.174 6.93517 280.353 6.93517C296.382 6.93517 305.95 17.7072 305.95 35.7455C305.95 38.5466 305.345 41.3086 304.108 44.0803C304.096 44.1089 304.085 44.1526 304.075 44.1963C303.34 45.8172 302.486 47.3169 301.657 48.7629C298.657 54.0121 295.824 58.965 300.127 67.4783C302.108 71.4008 303.681 76.1512 304.466 78.7241C303.035 78.5233 300.914 78.311 298.37 78.311ZM278.706 13.2646C267.253 13.2646 258.283 19.4709 258.283 27.3945C258.283 30.7274 259.382 34.0308 261.297 36.4591C264.554 40.5949 269.9 41.9402 275.754 39.9999C280.121 38.544 283.903 39.1149 286.172 41.5575C287.871 43.3863 288.708 46.1777 288.536 49.4133C288.464 50.772 289.475 51.9335 290.805 52.0209C290.857 52.0262 290.911 52.0262 290.966 52.0262C292.226 52.0262 293.289 51.0342 293.387 49.738C293.805 44.0839 294.951 40.7938 296.064 37.6108C297.137 34.5393 298.148 31.6418 298.148 27.3892C298.147 19.3353 289.789 13.2646 278.706 13.2646ZM290.448 39.0373C290.213 38.7331 289.964 38.4378 289.703 38.1523C287.325 35.5929 284.069 34.2441 280.286 34.2441C278.371 34.2441 276.337 34.5973 274.247 35.2887C273.286 35.6081 272.375 35.8061 271.511 35.8935C271.67 35.6134 271.829 35.352 271.99 35.0666C273.827 31.806 275.593 28.7059 278.436 28.9379C279.118 28.9673 279.689 28.4731 279.733 27.7915C279.784 27.1091 279.277 26.514 278.608 26.4659C274.206 26.1661 271.914 30.2296 269.883 33.8328C269.507 34.4956 269.147 35.1335 268.782 35.7339C267.316 35.3851 266.062 34.5973 265.087 33.3582C264.83 33.0344 264.61 32.6668 264.4 32.2939C267.059 31.4857 269.622 29.6096 270.117 28.0083C270.428 27.002 270.034 26.035 269.114 25.5461C268.531 25.2419 267.837 25.4694 267.52 26.0591C267.264 26.5238 267.356 27.0993 267.69 27.4864C267.201 28.2215 265.351 29.4794 263.5 29.9923C263.284 29.1511 263.143 28.2848 263.143 27.3945C263.143 24.4488 265.646 21.7877 269.427 20.0945C273.333 22.7164 279.413 23.5915 281.083 23.5915C281.753 23.5915 282.299 23.0402 282.299 22.3533C282.299 21.6708 281.753 21.1151 281.083 21.1151C279.545 21.1151 275.626 20.4433 272.533 19.0017C274.439 18.503 276.527 18.2175 278.705 18.2175C282.322 18.2175 285.592 19.0061 288.117 20.3363C286.712 22.3096 285.099 24.3462 285.077 24.3757C284.655 24.9083 284.735 25.6871 285.258 26.117C285.483 26.3008 285.753 26.3927 286.019 26.3927C286.375 26.3927 286.726 26.233 286.965 25.9333C287.06 25.812 288.72 23.7182 290.167 21.6664C292.122 23.2284 293.286 25.2071 293.286 27.3892C293.286 28.5409 293.171 29.5418 293.011 30.4999C292.945 30.4705 292.873 30.4464 292.807 30.4179C290.075 29.2617 287.497 28.1689 285.32 29.7354C284.771 30.1324 284.643 30.9014 285.03 31.4625C285.417 32.0192 286.177 32.1494 286.725 31.7578C287.804 30.979 289.689 31.7819 291.872 32.7061C292.062 32.7837 292.266 32.856 292.456 32.938C292.176 33.9149 291.854 34.8917 291.484 35.9515C291.144 36.923 290.791 37.9338 290.448 39.0373Z" fill="#002244"/>
</g>
</g>
</g>
<defs>
<clipPath id="clip0_7_70">
<rect width="550" height="169" fill="white"/>
</clipPath>
<clipPath id="clip1_7_70">
<rect width="550" height="169" fill="white"/>
</clipPath>
<clipPath id="clip2_7_70">
<rect width="550" height="64.5512" fill="white" transform="translate(0 104.449)"/>
</clipPath>
<clipPath id="clip3_7_70">
<rect width="550" height="64.5512" fill="white" transform="translate(0 104.449)"/>
</clipPath>
<clipPath id="clip4_7_70">
<rect width="550" height="64.5512" fill="white" transform="translate(0 104.449)"/>
</clipPath>
<clipPath id="clip5_7_70">
<rect width="550" height="64.5512" fill="white" transform="translate(0 104.449)"/>
</clipPath>
<clipPath id="clip6_7_70">
<rect width="87.5311" height="89.2098" fill="white" transform="translate(231.234)"/>
</clipPath>
</defs>
</svg>
